<?xml version="1.0" encoding="utf-8"?><svg version="1.1" id="Layer_1" xmlns="http://www.w3.org/2000/svg" xmlns:xlink="http://www.w3.org/1999/xlink" x="0px" y="0px" viewBox="0 0 122.88 70.51" style="enable-background:new 0 0 122.88 70.51" xml:space="preserve"><style type="text/css">.st0{fill-rule:evenodd;clip-rule:evenodd;}</style><g><path class="st0" d="M2.54,65.44h12.59c-0.93-0.24-1.63-1.1-1.63-2.1V2.17C13.5,0.98,14.48,0,15.67,0h90.97 c1.2,0,2.17,0.98,2.17,2.17v61.16c0,1.01-0.69,1.86-1.63,2.1h13.16c1.4,0,2.54,1.14,2.54,2.54v0c0,1.4-1.14,2.54-2.54,2.54H2.54 c-1.4,0-2.54-1.14-2.54-2.54v0C0,66.58,1.14,65.44,2.54,65.44L2.54,65.44z M79.72,45.97c-0.87,1.21-2.1,2.13-3.54,2.62 c-0.07,0.03-0.14,0.05-0.21,0.05c-0.07,0-0.21-0.11-0.21-0.04v0.02c0,0.49-0.4,0.89-0.89,0.89h-1.92c-0.49,0-0.89-0.4-0.89-0.89 v-13.8c0-0.49,0.4-0.89,0.89-0.89h1.92c0.49,0,0.89,0.4,0.89,0.89v0.08c0.06-0.03,0.13-0.04,0.21-0.04c0.06,0,0.18-0.03,0.16,0.03 l0,0c1.09,0.36,2.07,0.98,2.86,1.78v-6.8c0-18.31-35.31-18.12-35.31,0v7.25c0.85-1.02,1.98-1.81,3.27-2.24l0,0 c0.05-0.02,0.11-0.03,0.16-0.03c0.07,0,0.21,0.11,0.21,0.04v-0.08c0-0.49,0.4-0.89,0.89-0.89h1.92c0.49,0,0.89,0.4,0.89,0.89v13.8 c0,0.49-0.4,0.89-0.89,0.89h-1.92c-0.49,0-0.89-0.4-0.89-0.89V48.6c-0.06,0.03-0.13,0.04-0.21,0.04c-0.07,0-0.14-0.02-0.21-0.05 c-1.44-0.49-2.67-1.42-3.54-2.62c-0.46-0.63-0.81-1.34-1.04-2.1h-0.78V29.87c-0.01-22.82,39.78-22.68,39.79,0v14.01h-0.57 C80.53,44.63,80.51,45.97,79.72,45.97L79.72,45.97L79.72,45.97z M57.45,46.75c-0.91,1.2-1.64,2.55-0.88,4.53 c0.49,1.28,1.61,2.34,3.03,2.92c-2.32-5.11,4.34-6.95,4.54-0.89c2.23-1.85,2.21-4.57,0.58-6.78c-0.77-1.04-1.16-1.63-1.33-2.23 c-0.1-0.33-0.12-0.66-0.12-1.07c0-1.41,0.16-8.78,0.19-10.27c0.06-2.81,4.38-4.23,2.85-8.23c-0.49-1.28-1.61-2.34-3.03-2.92 c2.32,5.11-4.34,6.95-4.54,0.89c-2.23,1.85-2.21,4.57-0.58,6.78c0.72,0.97,1.56,1.57,1.51,3.48c-0.06,1.32-0.14,8.68-0.23,10 c-0.03,0.53-0.08,0.88-0.21,1.21c-0.23,0.6-0.7,1.15-1.78,2.57L57.45,46.75L57.45,46.75z M17.21,3.4h88.19v59.32H17.21V3.4 L17.21,3.4z M57.87,66.39h7.14c0.67,0,1.22,0.55,1.22,1.22l0,0c0,0.67-0.55,1.22-1.22,1.22h-7.14c-0.67,0-1.22-0.55-1.22-1.22l0,0 C56.65,66.93,57.2,66.39,57.87,66.39L57.87,66.39z"/></g></svg>