<?xml version="1.0" encoding="iso-8859-1"?>
<!-- Uploaded to: SVG Repo, www.svgrepo.com, Generator: SVG Repo Mixer Tools -->
<svg fill="#000000" height="800px" width="800px" version="1.1" id="Capa_1" xmlns="http://www.w3.org/2000/svg" xmlns:xlink="http://www.w3.org/1999/xlink" 
	 viewBox="0 0 290.063 290.063" xml:space="preserve">
<g>
	<path id="circle8018" d="M23.865,0c-1.827-0.015-3.517,0.967-4.408,2.562c-25.898,44.856-25.898,100.144,0,145
		c1.345,2.412,4.391,3.276,6.803,1.931c2.412-1.345,3.276-4.391,1.931-6.803c-0.024-0.043-0.048-0.085-0.074-0.128
		c-24.119-41.776-24.119-93.224,0-135c1.415-2.372,0.64-5.441-1.732-6.856C25.623,0.251,24.753,0.008,23.865,0z M266.047,0.004
		c-2.76,0.107-4.91,2.43-4.804,5.19c0.032,0.836,0.274,1.65,0.702,2.369c24.119,41.776,24.119,93.224,0,135
		c-1.416,2.371-0.642,5.441,1.729,6.857s5.441,0.642,6.857-1.729c0.025-0.042,0.05-0.085,0.074-0.128
		c25.898-44.856,25.898-100.144,0-145C269.688,0.92,267.927-0.068,266.047,0.004z M81.098,25c-1.827-0.015-3.517,0.967-4.408,2.562
		c-16.966,29.386-16.966,65.614,0,95c1.345,2.412,4.391,3.276,6.803,1.931c2.412-1.345,3.276-4.391,1.931-6.803
		c-0.024-0.043-0.048-0.085-0.074-0.128c-15.188-26.306-15.188-58.694,0-85c1.415-2.372,0.64-5.441-1.732-6.856
		C82.855,25.251,81.986,25.008,81.098,25z M208.815,25.004c-2.76,0.107-4.91,2.43-4.804,5.19c0.032,0.836,0.274,1.65,0.702,2.369
		c15.188,26.306,15.188,58.694,0,85c-1.416,2.371-0.642,5.441,1.729,6.857c2.371,1.416,5.441,0.642,6.857-1.729
		c0.025-0.042,0.05-0.085,0.074-0.128c16.966-29.386,16.966-65.614,0-95C212.456,25.92,210.694,24.932,208.815,25.004z
		 M145.031,40.063c-19.271,0-35,15.729-35,35c0,17.573,13.082,32.196,30,34.637v130.363h-115c-13.764,0-25,11.236-25,25
		s11.236,25,25,25h240c13.764,0,25-11.236,25-25s-11.236-25-25-25h-115V109.699c16.918-2.441,30-17.064,30-34.637
		C180.031,55.792,164.302,40.063,145.031,40.063z M145.031,50.063c13.866,0,25,11.134,25,25s-11.134,25-25,25s-25-11.134-25-25
		S131.165,50.063,145.031,50.063z M145.031,57.563c-1.381-0.02-2.516,1.084-2.535,2.465c-0.02,1.381,1.084,2.516,2.465,2.535
		c0.024,0,0.047,0,0.071,0c6.933,0,12.5,5.567,12.5,12.5c-0.02,1.381,1.084,2.516,2.465,2.535c1.381,0.02,2.516-1.084,2.535-2.465
		c0-0.024,0-0.047,0-0.071C162.531,65.427,154.667,57.563,145.031,57.563z M25.031,250.063h240c8.396,0,15,6.604,15,15
		s-6.604,15-15,15h-240c-8.396,0-15-6.604-15-15S16.635,250.063,25.031,250.063z M25.031,260.063
		c-2.761-0.039-5.032,2.168-5.071,4.929c-0.039,2.761,2.168,5.032,4.929,5.071c0.047,0.001,0.094,0.001,0.141,0h180
		c2.761,0.039,5.032-2.168,5.071-4.929c0.039-2.761-2.168-5.032-4.929-5.071c-0.047-0.001-0.094-0.001-0.141,0H25.031z
		 M225.031,260.063c-2.761,0-5,2.239-5,5s2.239,5,5,5s5-2.239,5-5S227.793,260.063,225.031,260.063z M245.031,260.063
		c-2.761,0-5,2.239-5,5s2.239,5,5,5s5-2.239,5-5S247.793,260.063,245.031,260.063z M265.031,260.063c-2.761,0-5,2.239-5,5
		s2.239,5,5,5s5-2.239,5-5S267.793,260.063,265.031,260.063z"/>
</g>
</svg>